<mxfile host="app.diagrams.net" agent="Mozilla/5.0 (Windows NT 10.0; Win64; x64) AppleWebKit/537.36 (KHTML, like Gecko) Chrome/134.0.0.0 Safari/537.36" version="26.1.0" pages="2">
  <diagram name="Страница — 1" id="maCKA6syijz5mWHrYQ3U">
    <mxGraphModel dx="794" dy="1148" grid="1" gridSize="10" guides="1" tooltips="1" connect="1" arrows="1" fold="1" page="1" pageScale="1" pageWidth="827" pageHeight="1169" math="0" shadow="0">
      <root>
        <mxCell id="0" />
        <mxCell id="1" parent="0" />
        <mxCell id="vW8EyIcWqaIHE4XJ59jx-3" value="" style="edgeStyle=orthogonalEdgeStyle;rounded=0;orthogonalLoop=1;jettySize=auto;html=1;" edge="1" parent="1" source="vW8EyIcWqaIHE4XJ59jx-1" target="vW8EyIcWqaIHE4XJ59jx-2">
          <mxGeometry relative="1" as="geometry" />
        </mxCell>
        <mxCell id="vW8EyIcWqaIHE4XJ59jx-1" value="int main()" style="shape=process;whiteSpace=wrap;html=1;backgroundOutline=1;" vertex="1" parent="1">
          <mxGeometry x="350" y="560" width="130" height="30" as="geometry" />
        </mxCell>
        <mxCell id="vW8EyIcWqaIHE4XJ59jx-5" value="" style="edgeStyle=orthogonalEdgeStyle;rounded=0;orthogonalLoop=1;jettySize=auto;html=1;" edge="1" parent="1" source="vW8EyIcWqaIHE4XJ59jx-2" target="vW8EyIcWqaIHE4XJ59jx-4">
          <mxGeometry relative="1" as="geometry" />
        </mxCell>
        <mxCell id="vW8EyIcWqaIHE4XJ59jx-2" value="setlocale(LC_ALL,&quot;russian&quot;); srand(time(NULL)); &lt;br&gt;&lt;br&gt;int matrix[N][M]{};" style="whiteSpace=wrap;html=1;" vertex="1" parent="1">
          <mxGeometry x="333.75" y="640" width="162.5" height="60" as="geometry" />
        </mxCell>
        <mxCell id="vW8EyIcWqaIHE4XJ59jx-7" value="" style="edgeStyle=orthogonalEdgeStyle;rounded=0;orthogonalLoop=1;jettySize=auto;html=1;" edge="1" parent="1" source="vW8EyIcWqaIHE4XJ59jx-4" target="vW8EyIcWqaIHE4XJ59jx-6">
          <mxGeometry relative="1" as="geometry" />
        </mxCell>
        <mxCell id="vW8EyIcWqaIHE4XJ59jx-28" style="edgeStyle=orthogonalEdgeStyle;rounded=0;orthogonalLoop=1;jettySize=auto;html=1;entryX=0.5;entryY=0;entryDx=0;entryDy=0;" edge="1" parent="1" source="vW8EyIcWqaIHE4XJ59jx-4" target="vW8EyIcWqaIHE4XJ59jx-27">
          <mxGeometry relative="1" as="geometry" />
        </mxCell>
        <mxCell id="vW8EyIcWqaIHE4XJ59jx-4" value="while (true)" style="rhombus;whiteSpace=wrap;html=1;" vertex="1" parent="1">
          <mxGeometry x="362.5" y="750" width="105" height="40" as="geometry" />
        </mxCell>
        <mxCell id="vW8EyIcWqaIHE4XJ59jx-9" value="" style="edgeStyle=orthogonalEdgeStyle;rounded=0;orthogonalLoop=1;jettySize=auto;html=1;" edge="1" parent="1" source="vW8EyIcWqaIHE4XJ59jx-6" target="vW8EyIcWqaIHE4XJ59jx-8">
          <mxGeometry relative="1" as="geometry" />
        </mxCell>
        <mxCell id="vW8EyIcWqaIHE4XJ59jx-6" value="cout &amp;lt;&amp;lt; &quot;Массив: &quot; &amp;lt;&amp;lt; endl;" style="shape=parallelogram;perimeter=parallelogramPerimeter;whiteSpace=wrap;html=1;fixedSize=1;" vertex="1" parent="1">
          <mxGeometry x="327.5" y="840" width="175" height="30" as="geometry" />
        </mxCell>
        <mxCell id="vW8EyIcWqaIHE4XJ59jx-11" value="" style="edgeStyle=orthogonalEdgeStyle;rounded=0;orthogonalLoop=1;jettySize=auto;html=1;" edge="1" parent="1" source="vW8EyIcWqaIHE4XJ59jx-8" target="vW8EyIcWqaIHE4XJ59jx-10">
          <mxGeometry relative="1" as="geometry" />
        </mxCell>
        <mxCell id="vW8EyIcWqaIHE4XJ59jx-23" value="" style="edgeStyle=orthogonalEdgeStyle;rounded=0;orthogonalLoop=1;jettySize=auto;html=1;" edge="1" parent="1" source="vW8EyIcWqaIHE4XJ59jx-8" target="vW8EyIcWqaIHE4XJ59jx-22">
          <mxGeometry relative="1" as="geometry" />
        </mxCell>
        <mxCell id="vW8EyIcWqaIHE4XJ59jx-8" value="for (int i=0;i&amp;lt;N;i++)" style="rhombus;whiteSpace=wrap;html=1;" vertex="1" parent="1">
          <mxGeometry x="337.5" y="910" width="155" height="55" as="geometry" />
        </mxCell>
        <mxCell id="vW8EyIcWqaIHE4XJ59jx-13" value="" style="edgeStyle=orthogonalEdgeStyle;rounded=0;orthogonalLoop=1;jettySize=auto;html=1;" edge="1" parent="1" source="vW8EyIcWqaIHE4XJ59jx-10" target="vW8EyIcWqaIHE4XJ59jx-12">
          <mxGeometry relative="1" as="geometry" />
        </mxCell>
        <mxCell id="vW8EyIcWqaIHE4XJ59jx-20" value="" style="edgeStyle=orthogonalEdgeStyle;rounded=0;orthogonalLoop=1;jettySize=auto;html=1;" edge="1" parent="1" source="vW8EyIcWqaIHE4XJ59jx-10" target="vW8EyIcWqaIHE4XJ59jx-19">
          <mxGeometry relative="1" as="geometry" />
        </mxCell>
        <mxCell id="vW8EyIcWqaIHE4XJ59jx-10" value="for (int j=0;j&amp;lt;M;j++)" style="rhombus;whiteSpace=wrap;html=1;" vertex="1" parent="1">
          <mxGeometry x="342.5" y="1000" width="145" height="57.5" as="geometry" />
        </mxCell>
        <mxCell id="vW8EyIcWqaIHE4XJ59jx-15" value="" style="edgeStyle=orthogonalEdgeStyle;rounded=0;orthogonalLoop=1;jettySize=auto;html=1;" edge="1" parent="1" source="vW8EyIcWqaIHE4XJ59jx-12" target="vW8EyIcWqaIHE4XJ59jx-14">
          <mxGeometry relative="1" as="geometry" />
        </mxCell>
        <mxCell id="vW8EyIcWqaIHE4XJ59jx-12" value="matrix[i][j] = rand()%11-5;" style="whiteSpace=wrap;html=1;" vertex="1" parent="1">
          <mxGeometry x="332.5" y="1090" width="165" height="33.75" as="geometry" />
        </mxCell>
        <mxCell id="vW8EyIcWqaIHE4XJ59jx-16" style="edgeStyle=orthogonalEdgeStyle;rounded=0;orthogonalLoop=1;jettySize=auto;html=1;entryX=0;entryY=0.5;entryDx=0;entryDy=0;" edge="1" parent="1" source="vW8EyIcWqaIHE4XJ59jx-14" target="vW8EyIcWqaIHE4XJ59jx-10">
          <mxGeometry relative="1" as="geometry">
            <Array as="points">
              <mxPoint x="415" y="1210" />
              <mxPoint x="308" y="1210" />
              <mxPoint x="308" y="1029" />
            </Array>
          </mxGeometry>
        </mxCell>
        <mxCell id="vW8EyIcWqaIHE4XJ59jx-14" value="cout &amp;lt;&amp;lt; matrix[i][j] &amp;lt;&amp;lt; &quot;\t&quot;;" style="shape=parallelogram;perimeter=parallelogramPerimeter;whiteSpace=wrap;html=1;fixedSize=1;" vertex="1" parent="1">
          <mxGeometry x="327.5" y="1160" width="175" height="29.38" as="geometry" />
        </mxCell>
        <mxCell id="vW8EyIcWqaIHE4XJ59jx-21" style="edgeStyle=orthogonalEdgeStyle;rounded=0;orthogonalLoop=1;jettySize=auto;html=1;entryX=0;entryY=0.5;entryDx=0;entryDy=0;" edge="1" parent="1" source="vW8EyIcWqaIHE4XJ59jx-19" target="vW8EyIcWqaIHE4XJ59jx-8">
          <mxGeometry relative="1" as="geometry">
            <Array as="points">
              <mxPoint x="590" y="1230" />
              <mxPoint x="280" y="1230" />
              <mxPoint x="280" y="938" />
            </Array>
          </mxGeometry>
        </mxCell>
        <mxCell id="vW8EyIcWqaIHE4XJ59jx-19" value="cout &amp;lt;&amp;lt; endl;" style="shape=parallelogram;perimeter=parallelogramPerimeter;whiteSpace=wrap;html=1;fixedSize=1;" vertex="1" parent="1">
          <mxGeometry x="540" y="1096.25" width="100" height="21.25" as="geometry" />
        </mxCell>
        <mxCell id="vW8EyIcWqaIHE4XJ59jx-25" value="" style="edgeStyle=orthogonalEdgeStyle;rounded=0;orthogonalLoop=1;jettySize=auto;html=1;" edge="1" parent="1" source="vW8EyIcWqaIHE4XJ59jx-22" target="vW8EyIcWqaIHE4XJ59jx-24">
          <mxGeometry relative="1" as="geometry" />
        </mxCell>
        <mxCell id="vW8EyIcWqaIHE4XJ59jx-22" value="MinUniq(matrix);" style="whiteSpace=wrap;html=1;" vertex="1" parent="1">
          <mxGeometry x="660" y="1012.5" width="90" height="32.5" as="geometry" />
        </mxCell>
        <mxCell id="vW8EyIcWqaIHE4XJ59jx-26" style="edgeStyle=orthogonalEdgeStyle;rounded=0;orthogonalLoop=1;jettySize=auto;html=1;entryX=0;entryY=0.5;entryDx=0;entryDy=0;" edge="1" parent="1" source="vW8EyIcWqaIHE4XJ59jx-24" target="vW8EyIcWqaIHE4XJ59jx-4">
          <mxGeometry relative="1" as="geometry">
            <Array as="points">
              <mxPoint x="705" y="1250" />
              <mxPoint x="250" y="1250" />
              <mxPoint x="250" y="770" />
            </Array>
          </mxGeometry>
        </mxCell>
        <UserObject label="cin.get();" link="cin.get();" id="vW8EyIcWqaIHE4XJ59jx-24">
          <mxCell style="shape=parallelogram;perimeter=parallelogramPerimeter;whiteSpace=wrap;html=1;fixedSize=1;" vertex="1" parent="1">
            <mxGeometry x="650" y="1097.5" width="110" height="18.75" as="geometry" />
          </mxCell>
        </UserObject>
        <mxCell id="vW8EyIcWqaIHE4XJ59jx-27" value="return 0;" style="ellipse;whiteSpace=wrap;html=1;" vertex="1" parent="1">
          <mxGeometry x="545" y="830" width="90" height="50" as="geometry" />
        </mxCell>
        <mxCell id="vW8EyIcWqaIHE4XJ59jx-29" value="{" style="text;html=1;align=center;verticalAlign=middle;resizable=0;points=[];autosize=1;strokeColor=none;fillColor=none;" vertex="1" parent="1">
          <mxGeometry x="385" y="598" width="30" height="30" as="geometry" />
        </mxCell>
        <mxCell id="vW8EyIcWqaIHE4XJ59jx-30" value="{" style="text;html=1;align=center;verticalAlign=middle;resizable=0;points=[];autosize=1;strokeColor=none;fillColor=none;" vertex="1" parent="1">
          <mxGeometry x="380" y="800" width="30" height="30" as="geometry" />
        </mxCell>
        <mxCell id="vW8EyIcWqaIHE4XJ59jx-31" value="{" style="text;html=1;align=center;verticalAlign=middle;resizable=0;points=[];autosize=1;strokeColor=none;fillColor=none;" vertex="1" parent="1">
          <mxGeometry x="380" y="965" width="30" height="30" as="geometry" />
        </mxCell>
        <mxCell id="vW8EyIcWqaIHE4XJ59jx-32" value="{" style="text;html=1;align=center;verticalAlign=middle;resizable=0;points=[];autosize=1;strokeColor=none;fillColor=none;" vertex="1" parent="1">
          <mxGeometry x="380" y="1057.5" width="30" height="30" as="geometry" />
        </mxCell>
        <mxCell id="vW8EyIcWqaIHE4XJ59jx-34" value="}" style="text;html=1;align=center;verticalAlign=middle;resizable=0;points=[];autosize=1;strokeColor=none;fillColor=none;" vertex="1" parent="1">
          <mxGeometry x="590" y="1045" width="30" height="30" as="geometry" />
        </mxCell>
        <mxCell id="vW8EyIcWqaIHE4XJ59jx-35" value="}" style="text;html=1;align=center;verticalAlign=middle;resizable=0;points=[];autosize=1;strokeColor=none;fillColor=none;" vertex="1" parent="1">
          <mxGeometry x="590" y="880" width="30" height="30" as="geometry" />
        </mxCell>
        <mxCell id="vW8EyIcWqaIHE4XJ59jx-36" value="}" style="text;html=1;align=center;verticalAlign=middle;resizable=0;points=[];autosize=1;strokeColor=none;fillColor=none;" vertex="1" parent="1">
          <mxGeometry x="414" y="1190" width="30" height="30" as="geometry" />
        </mxCell>
        <mxCell id="vW8EyIcWqaIHE4XJ59jx-37" value="}" style="text;html=1;align=center;verticalAlign=middle;resizable=0;points=[];autosize=1;strokeColor=none;fillColor=none;" vertex="1" parent="1">
          <mxGeometry x="710" y="940" width="30" height="30" as="geometry" />
        </mxCell>
        <mxCell id="vW8EyIcWqaIHE4XJ59jx-38" value="}" style="text;html=1;align=center;verticalAlign=middle;resizable=0;points=[];autosize=1;strokeColor=none;fillColor=none;" vertex="1" parent="1">
          <mxGeometry x="590" y="770" width="30" height="30" as="geometry" />
        </mxCell>
        <mxCell id="vW8EyIcWqaIHE4XJ59jx-40" value="1" style="text;html=1;align=center;verticalAlign=middle;resizable=0;points=[];autosize=1;strokeColor=none;fillColor=none;" vertex="1" parent="1">
          <mxGeometry x="414" y="598" width="30" height="30" as="geometry" />
        </mxCell>
        <mxCell id="vW8EyIcWqaIHE4XJ59jx-41" value="1" style="text;html=1;align=center;verticalAlign=middle;resizable=0;points=[];autosize=1;strokeColor=none;fillColor=none;" vertex="1" parent="1">
          <mxGeometry x="420" y="800" width="30" height="30" as="geometry" />
        </mxCell>
        <mxCell id="vW8EyIcWqaIHE4XJ59jx-42" value="1" style="text;html=1;align=center;verticalAlign=middle;resizable=0;points=[];autosize=1;strokeColor=none;fillColor=none;" vertex="1" parent="1">
          <mxGeometry x="430" y="810" width="30" height="30" as="geometry" />
        </mxCell>
        <mxCell id="vW8EyIcWqaIHE4XJ59jx-43" value="1" style="text;html=1;align=center;verticalAlign=middle;resizable=0;points=[];autosize=1;strokeColor=none;fillColor=none;" vertex="1" parent="1">
          <mxGeometry x="420" y="970" width="30" height="30" as="geometry" />
        </mxCell>
        <mxCell id="vW8EyIcWqaIHE4XJ59jx-44" value="1" style="text;html=1;align=center;verticalAlign=middle;resizable=0;points=[];autosize=1;strokeColor=none;fillColor=none;" vertex="1" parent="1">
          <mxGeometry x="414" y="1057.5" width="30" height="30" as="geometry" />
        </mxCell>
        <mxCell id="vW8EyIcWqaIHE4XJ59jx-45" value="0" style="text;html=1;align=center;verticalAlign=middle;resizable=0;points=[];autosize=1;strokeColor=none;fillColor=none;" vertex="1" parent="1">
          <mxGeometry x="505" y="998" width="30" height="30" as="geometry" />
        </mxCell>
        <mxCell id="vW8EyIcWqaIHE4XJ59jx-46" value="0" style="text;html=1;align=center;verticalAlign=middle;resizable=0;points=[];autosize=1;strokeColor=none;fillColor=none;" vertex="1" parent="1">
          <mxGeometry x="502.5" y="910" width="30" height="30" as="geometry" />
        </mxCell>
        <mxCell id="vW8EyIcWqaIHE4XJ59jx-47" value="0" style="text;html=1;align=center;verticalAlign=middle;resizable=0;points=[];autosize=1;strokeColor=none;fillColor=none;" vertex="1" parent="1">
          <mxGeometry x="505" y="740" width="30" height="30" as="geometry" />
        </mxCell>
        <mxCell id="sx3oK3x_Qk47YW82jxld-2" value="#include &amp;lt;iostream&amp;gt; &lt;br&gt;&lt;br&gt;using namespace std; &lt;br&gt;&lt;br&gt;const int N=5; &lt;br&gt;const int M=N; &lt;br&gt;&lt;br&gt;void MinUniq(int matrix[N][M])" style="text;html=1;align=center;verticalAlign=middle;whiteSpace=wrap;rounded=0;" vertex="1" parent="1">
          <mxGeometry x="560" y="528" width="165" height="140" as="geometry" />
        </mxCell>
        <mxCell id="sx3oK3x_Qk47YW82jxld-3" value="" style="endArrow=none;html=1;rounded=0;entryX=0;entryY=1;entryDx=0;entryDy=0;exitX=0;exitY=0;exitDx=0;exitDy=0;" edge="1" parent="1" source="sx3oK3x_Qk47YW82jxld-2" target="sx3oK3x_Qk47YW82jxld-2">
          <mxGeometry width="50" height="50" relative="1" as="geometry">
            <mxPoint x="410" y="910" as="sourcePoint" />
            <mxPoint x="460" y="860" as="targetPoint" />
          </mxGeometry>
        </mxCell>
        <mxCell id="sx3oK3x_Qk47YW82jxld-4" value="" style="endArrow=none;html=1;rounded=0;exitX=0;exitY=1;exitDx=0;exitDy=0;entryX=0.75;entryY=1;entryDx=0;entryDy=0;" edge="1" parent="1" source="sx3oK3x_Qk47YW82jxld-2" target="sx3oK3x_Qk47YW82jxld-2">
          <mxGeometry width="50" height="50" relative="1" as="geometry">
            <mxPoint x="410" y="910" as="sourcePoint" />
            <mxPoint x="460" y="860" as="targetPoint" />
          </mxGeometry>
        </mxCell>
        <mxCell id="sx3oK3x_Qk47YW82jxld-5" value="" style="endArrow=none;html=1;rounded=0;exitX=0;exitY=0;exitDx=0;exitDy=0;entryX=0.75;entryY=0;entryDx=0;entryDy=0;" edge="1" parent="1" source="sx3oK3x_Qk47YW82jxld-2" target="sx3oK3x_Qk47YW82jxld-2">
          <mxGeometry width="50" height="50" relative="1" as="geometry">
            <mxPoint x="645" y="690" as="sourcePoint" />
            <mxPoint x="769" y="690" as="targetPoint" />
          </mxGeometry>
        </mxCell>
        <mxCell id="sx3oK3x_Qk47YW82jxld-6" value="" style="endArrow=none;html=1;rounded=0;entryX=-0.033;entryY=0;entryDx=0;entryDy=0;entryPerimeter=0;exitX=0;exitY=0.5;exitDx=0;exitDy=0;" edge="1" parent="1" source="sx3oK3x_Qk47YW82jxld-2" target="vW8EyIcWqaIHE4XJ59jx-40">
          <mxGeometry width="50" height="50" relative="1" as="geometry">
            <mxPoint x="410" y="910" as="sourcePoint" />
            <mxPoint x="460" y="860" as="targetPoint" />
          </mxGeometry>
        </mxCell>
      </root>
    </mxGraphModel>
  </diagram>
  <diagram id="Yh4XQBpf8blPuJBUoiBE" name="Страница — 2">
    <mxGraphModel dx="1134" dy="1640" grid="1" gridSize="10" guides="1" tooltips="1" connect="1" arrows="1" fold="1" page="1" pageScale="1" pageWidth="827" pageHeight="1169" math="0" shadow="0">
      <root>
        <mxCell id="0" />
        <mxCell id="1" parent="0" />
        <mxCell id="pDvQlq5ygZJsm-qyIQiG-3" value="" style="edgeStyle=orthogonalEdgeStyle;rounded=0;orthogonalLoop=1;jettySize=auto;html=1;" edge="1" parent="1" source="pDvQlq5ygZJsm-qyIQiG-1" target="pDvQlq5ygZJsm-qyIQiG-2">
          <mxGeometry relative="1" as="geometry" />
        </mxCell>
        <mxCell id="pDvQlq5ygZJsm-qyIQiG-1" value="void MinUniq(int matrix[N][M])" style="shape=process;whiteSpace=wrap;html=1;backgroundOutline=1;" vertex="1" parent="1">
          <mxGeometry x="330" y="410" width="240" height="30" as="geometry" />
        </mxCell>
        <mxCell id="pDvQlq5ygZJsm-qyIQiG-5" value="" style="edgeStyle=orthogonalEdgeStyle;rounded=0;orthogonalLoop=1;jettySize=auto;html=1;" edge="1" parent="1" source="pDvQlq5ygZJsm-qyIQiG-2" target="pDvQlq5ygZJsm-qyIQiG-4">
          <mxGeometry relative="1" as="geometry" />
        </mxCell>
        <mxCell id="pDvQlq5ygZJsm-qyIQiG-2" value="int sortedMas[N*M]{}; sortedMas[0]=matrix[0][0];" style="whiteSpace=wrap;html=1;" vertex="1" parent="1">
          <mxGeometry x="335" y="480" width="230" height="45" as="geometry" />
        </mxCell>
        <mxCell id="pDvQlq5ygZJsm-qyIQiG-7" value="" style="edgeStyle=orthogonalEdgeStyle;rounded=0;orthogonalLoop=1;jettySize=auto;html=1;" edge="1" parent="1" source="pDvQlq5ygZJsm-qyIQiG-4" target="pDvQlq5ygZJsm-qyIQiG-6">
          <mxGeometry relative="1" as="geometry" />
        </mxCell>
        <mxCell id="Lf-j3aKx7FF4s02Z2M5Q-18" value="" style="edgeStyle=orthogonalEdgeStyle;rounded=0;orthogonalLoop=1;jettySize=auto;html=1;" edge="1" parent="1" source="pDvQlq5ygZJsm-qyIQiG-4" target="Lf-j3aKx7FF4s02Z2M5Q-17">
          <mxGeometry relative="1" as="geometry" />
        </mxCell>
        <mxCell id="pDvQlq5ygZJsm-qyIQiG-4" value="for (int i=0;i&amp;lt;N;i++)" style="rhombus;whiteSpace=wrap;html=1;" vertex="1" parent="1">
          <mxGeometry x="355" y="570" width="190" height="52.5" as="geometry" />
        </mxCell>
        <mxCell id="pDvQlq5ygZJsm-qyIQiG-9" value="" style="edgeStyle=orthogonalEdgeStyle;rounded=0;orthogonalLoop=1;jettySize=auto;html=1;" edge="1" parent="1" source="pDvQlq5ygZJsm-qyIQiG-6" target="pDvQlq5ygZJsm-qyIQiG-8">
          <mxGeometry relative="1" as="geometry" />
        </mxCell>
        <mxCell id="Lf-j3aKx7FF4s02Z2M5Q-16" style="edgeStyle=orthogonalEdgeStyle;rounded=0;orthogonalLoop=1;jettySize=auto;html=1;entryX=0;entryY=0.5;entryDx=0;entryDy=0;exitX=1;exitY=0.5;exitDx=0;exitDy=0;" edge="1" parent="1" source="pDvQlq5ygZJsm-qyIQiG-6" target="pDvQlq5ygZJsm-qyIQiG-4">
          <mxGeometry relative="1" as="geometry">
            <mxPoint x="524.7804878048778" y="699.45" as="sourcePoint" />
            <mxPoint x="355" y="610" as="targetPoint" />
            <Array as="points">
              <mxPoint x="990" y="686" />
              <mxPoint x="990" y="1184" />
              <mxPoint x="250" y="1184" />
              <mxPoint x="250" y="596" />
            </Array>
          </mxGeometry>
        </mxCell>
        <mxCell id="pDvQlq5ygZJsm-qyIQiG-6" value="for (int j=0;j&amp;lt;M;j++)" style="rhombus;whiteSpace=wrap;html=1;" vertex="1" parent="1">
          <mxGeometry x="375" y="660" width="150" height="51.25" as="geometry" />
        </mxCell>
        <mxCell id="pDvQlq5ygZJsm-qyIQiG-11" value="" style="edgeStyle=orthogonalEdgeStyle;rounded=0;orthogonalLoop=1;jettySize=auto;html=1;" edge="1" parent="1" source="pDvQlq5ygZJsm-qyIQiG-8" target="pDvQlq5ygZJsm-qyIQiG-10">
          <mxGeometry relative="1" as="geometry" />
        </mxCell>
        <mxCell id="Lf-j3aKx7FF4s02Z2M5Q-3" value="" style="edgeStyle=orthogonalEdgeStyle;rounded=0;orthogonalLoop=1;jettySize=auto;html=1;" edge="1" parent="1" source="pDvQlq5ygZJsm-qyIQiG-8" target="Lf-j3aKx7FF4s02Z2M5Q-2">
          <mxGeometry relative="1" as="geometry">
            <Array as="points">
              <mxPoint x="675" y="777" />
            </Array>
          </mxGeometry>
        </mxCell>
        <mxCell id="pDvQlq5ygZJsm-qyIQiG-8" value="if (!i&amp;amp;&amp;amp;!j)" style="rhombus;whiteSpace=wrap;html=1;" vertex="1" parent="1">
          <mxGeometry x="395" y="760" width="110" height="33.13" as="geometry" />
        </mxCell>
        <mxCell id="Lf-j3aKx7FF4s02Z2M5Q-1" style="edgeStyle=orthogonalEdgeStyle;rounded=0;orthogonalLoop=1;jettySize=auto;html=1;entryX=0;entryY=0.5;entryDx=0;entryDy=0;" edge="1" parent="1" source="pDvQlq5ygZJsm-qyIQiG-10" target="pDvQlq5ygZJsm-qyIQiG-6">
          <mxGeometry relative="1" as="geometry">
            <Array as="points">
              <mxPoint x="355" y="880" />
              <mxPoint x="290" y="880" />
              <mxPoint x="290" y="686" />
            </Array>
          </mxGeometry>
        </mxCell>
        <mxCell id="pDvQlq5ygZJsm-qyIQiG-10" value="continue;" style="whiteSpace=wrap;html=1;" vertex="1" parent="1">
          <mxGeometry x="320" y="830" width="70" height="36.57" as="geometry" />
        </mxCell>
        <mxCell id="Lf-j3aKx7FF4s02Z2M5Q-5" value="" style="edgeStyle=orthogonalEdgeStyle;rounded=0;orthogonalLoop=1;jettySize=auto;html=1;" edge="1" parent="1" source="Lf-j3aKx7FF4s02Z2M5Q-2" target="Lf-j3aKx7FF4s02Z2M5Q-4">
          <mxGeometry relative="1" as="geometry" />
        </mxCell>
        <mxCell id="Lf-j3aKx7FF4s02Z2M5Q-15" style="edgeStyle=orthogonalEdgeStyle;rounded=0;orthogonalLoop=1;jettySize=auto;html=1;" edge="1" parent="1" source="Lf-j3aKx7FF4s02Z2M5Q-2">
          <mxGeometry relative="1" as="geometry">
            <mxPoint x="290" y="880" as="targetPoint" />
            <Array as="points">
              <mxPoint x="960" y="848" />
              <mxPoint x="960" y="1160" />
              <mxPoint x="290" y="1160" />
            </Array>
          </mxGeometry>
        </mxCell>
        <mxCell id="Lf-j3aKx7FF4s02Z2M5Q-2" value="for (int k=(i*M)+j-1; k&amp;gt;=0;k--)" style="rhombus;whiteSpace=wrap;html=1;" vertex="1" parent="1">
          <mxGeometry x="575" y="816.57" width="200" height="63.43" as="geometry" />
        </mxCell>
        <mxCell id="Lf-j3aKx7FF4s02Z2M5Q-7" value="" style="edgeStyle=orthogonalEdgeStyle;rounded=0;orthogonalLoop=1;jettySize=auto;html=1;" edge="1" parent="1" source="Lf-j3aKx7FF4s02Z2M5Q-4" target="Lf-j3aKx7FF4s02Z2M5Q-6">
          <mxGeometry relative="1" as="geometry">
            <Array as="points">
              <mxPoint x="520" y="949" />
            </Array>
          </mxGeometry>
        </mxCell>
        <mxCell id="Lf-j3aKx7FF4s02Z2M5Q-9" value="" style="edgeStyle=orthogonalEdgeStyle;rounded=0;orthogonalLoop=1;jettySize=auto;html=1;" edge="1" parent="1" source="Lf-j3aKx7FF4s02Z2M5Q-4" target="Lf-j3aKx7FF4s02Z2M5Q-8">
          <mxGeometry relative="1" as="geometry" />
        </mxCell>
        <mxCell id="Lf-j3aKx7FF4s02Z2M5Q-4" value="if (matrix[i][j]&amp;lt;sortedMas[k])" style="rhombus;whiteSpace=wrap;html=1;" vertex="1" parent="1">
          <mxGeometry x="577.5" y="920" width="195" height="58.28" as="geometry" />
        </mxCell>
        <mxCell id="Lf-j3aKx7FF4s02Z2M5Q-11" style="edgeStyle=orthogonalEdgeStyle;rounded=0;orthogonalLoop=1;jettySize=auto;html=1;" edge="1" parent="1" source="Lf-j3aKx7FF4s02Z2M5Q-6">
          <mxGeometry relative="1" as="geometry">
            <mxPoint x="680" y="1120" as="targetPoint" />
            <Array as="points">
              <mxPoint x="520" y="1120" />
            </Array>
          </mxGeometry>
        </mxCell>
        <mxCell id="Lf-j3aKx7FF4s02Z2M5Q-6" value="sortedMas[k+1]=sortedMas[k];&lt;br&gt;sortedMas[k]=matrix[i][j];" style="whiteSpace=wrap;html=1;" vertex="1" parent="1">
          <mxGeometry x="430" y="1030" width="180" height="50.86" as="geometry" />
        </mxCell>
        <mxCell id="Lf-j3aKx7FF4s02Z2M5Q-10" style="edgeStyle=orthogonalEdgeStyle;rounded=0;orthogonalLoop=1;jettySize=auto;html=1;" edge="1" parent="1" source="Lf-j3aKx7FF4s02Z2M5Q-8">
          <mxGeometry relative="1" as="geometry">
            <mxPoint x="680" y="1120" as="targetPoint" />
            <Array as="points">
              <mxPoint x="865" y="1120" />
            </Array>
          </mxGeometry>
        </mxCell>
        <mxCell id="Lf-j3aKx7FF4s02Z2M5Q-8" value="sortedMas[k+1]=matrix[i][j];&lt;br&gt;k=0;" style="whiteSpace=wrap;html=1;" vertex="1" parent="1">
          <mxGeometry x="780" y="1035.43" width="170" height="40" as="geometry" />
        </mxCell>
        <mxCell id="Lf-j3aKx7FF4s02Z2M5Q-13" value="" style="endArrow=classic;html=1;rounded=0;entryX=0;entryY=0.5;entryDx=0;entryDy=0;" edge="1" parent="1" target="Lf-j3aKx7FF4s02Z2M5Q-2">
          <mxGeometry width="50" height="50" relative="1" as="geometry">
            <mxPoint x="680" y="1120" as="sourcePoint" />
            <mxPoint x="290" y="880" as="targetPoint" />
            <Array as="points">
              <mxPoint x="680" y="1140" />
              <mxPoint x="420" y="1140" />
              <mxPoint x="420" y="848" />
            </Array>
          </mxGeometry>
        </mxCell>
        <mxCell id="Lf-j3aKx7FF4s02Z2M5Q-20" value="" style="edgeStyle=orthogonalEdgeStyle;rounded=0;orthogonalLoop=1;jettySize=auto;html=1;" edge="1" parent="1" source="Lf-j3aKx7FF4s02Z2M5Q-17" target="Lf-j3aKx7FF4s02Z2M5Q-19">
          <mxGeometry relative="1" as="geometry" />
        </mxCell>
        <mxCell id="Lf-j3aKx7FF4s02Z2M5Q-17" value="bool isFounded=false; &lt;br&gt;int temp=sortedMas[0];" style="whiteSpace=wrap;html=1;" vertex="1" parent="1">
          <mxGeometry x="1278.75" y="680" width="170" height="33.75" as="geometry" />
        </mxCell>
        <mxCell id="Lf-j3aKx7FF4s02Z2M5Q-22" value="" style="edgeStyle=orthogonalEdgeStyle;rounded=0;orthogonalLoop=1;jettySize=auto;html=1;" edge="1" parent="1" source="Lf-j3aKx7FF4s02Z2M5Q-19" target="Lf-j3aKx7FF4s02Z2M5Q-21">
          <mxGeometry relative="1" as="geometry" />
        </mxCell>
        <mxCell id="Lf-j3aKx7FF4s02Z2M5Q-47" style="edgeStyle=orthogonalEdgeStyle;rounded=0;orthogonalLoop=1;jettySize=auto;html=1;" edge="1" parent="1" source="Lf-j3aKx7FF4s02Z2M5Q-19">
          <mxGeometry relative="1" as="geometry">
            <mxPoint x="1363.75" y="850" as="targetPoint" />
            <Array as="points">
              <mxPoint x="1550" y="788" />
              <mxPoint x="1550" y="850" />
            </Array>
          </mxGeometry>
        </mxCell>
        <mxCell id="Lf-j3aKx7FF4s02Z2M5Q-19" value="if (!isFounded)" style="rhombus;whiteSpace=wrap;html=1;" vertex="1" parent="1">
          <mxGeometry x="1296.25" y="762.5" width="135" height="50.63" as="geometry" />
        </mxCell>
        <mxCell id="Lf-j3aKx7FF4s02Z2M5Q-24" value="" style="edgeStyle=orthogonalEdgeStyle;rounded=0;orthogonalLoop=1;jettySize=auto;html=1;" edge="1" parent="1" source="Lf-j3aKx7FF4s02Z2M5Q-21" target="Lf-j3aKx7FF4s02Z2M5Q-23">
          <mxGeometry relative="1" as="geometry" />
        </mxCell>
        <mxCell id="Lf-j3aKx7FF4s02Z2M5Q-46" style="edgeStyle=orthogonalEdgeStyle;rounded=0;orthogonalLoop=1;jettySize=auto;html=1;" edge="1" parent="1" source="Lf-j3aKx7FF4s02Z2M5Q-21">
          <mxGeometry relative="1" as="geometry">
            <mxPoint x="1370" y="850" as="targetPoint" />
            <Array as="points">
              <mxPoint x="1312" y="850" />
              <mxPoint x="1360" y="850" />
            </Array>
          </mxGeometry>
        </mxCell>
        <mxCell id="Lf-j3aKx7FF4s02Z2M5Q-21" value="for (int i=1; i&amp;lt;N*M;i++)" style="rhombus;whiteSpace=wrap;html=1;" vertex="1" parent="1">
          <mxGeometry x="1110" y="823.26" width="155" height="54.05" as="geometry" />
        </mxCell>
        <mxCell id="Lf-j3aKx7FF4s02Z2M5Q-27" style="edgeStyle=orthogonalEdgeStyle;rounded=0;orthogonalLoop=1;jettySize=auto;html=1;entryX=0.5;entryY=0;entryDx=0;entryDy=0;" edge="1" parent="1" source="Lf-j3aKx7FF4s02Z2M5Q-23" target="Lf-j3aKx7FF4s02Z2M5Q-25">
          <mxGeometry relative="1" as="geometry">
            <Array as="points">
              <mxPoint x="1090" y="992" />
            </Array>
          </mxGeometry>
        </mxCell>
        <mxCell id="Lf-j3aKx7FF4s02Z2M5Q-30" value="" style="edgeStyle=orthogonalEdgeStyle;rounded=0;orthogonalLoop=1;jettySize=auto;html=1;" edge="1" parent="1" source="Lf-j3aKx7FF4s02Z2M5Q-23" target="Lf-j3aKx7FF4s02Z2M5Q-29">
          <mxGeometry relative="1" as="geometry">
            <Array as="points">
              <mxPoint x="1364" y="991" />
            </Array>
          </mxGeometry>
        </mxCell>
        <mxCell id="Lf-j3aKx7FF4s02Z2M5Q-23" value="if (temp==sortedMas[i])" style="rhombus;whiteSpace=wrap;html=1;" vertex="1" parent="1">
          <mxGeometry x="1100" y="962.61" width="175" height="57.67" as="geometry" />
        </mxCell>
        <mxCell id="Lf-j3aKx7FF4s02Z2M5Q-28" style="edgeStyle=orthogonalEdgeStyle;rounded=0;orthogonalLoop=1;jettySize=auto;html=1;entryX=0;entryY=0.5;entryDx=0;entryDy=0;" edge="1" parent="1" source="Lf-j3aKx7FF4s02Z2M5Q-25" target="Lf-j3aKx7FF4s02Z2M5Q-21">
          <mxGeometry relative="1" as="geometry">
            <Array as="points">
              <mxPoint x="1090" y="1160" />
              <mxPoint x="1030" y="1160" />
              <mxPoint x="1030" y="850" />
            </Array>
          </mxGeometry>
        </mxCell>
        <mxCell id="Lf-j3aKx7FF4s02Z2M5Q-25" value="continue;" style="whiteSpace=wrap;html=1;" vertex="1" parent="1">
          <mxGeometry x="1050" y="1080.15" width="80" height="34.57" as="geometry" />
        </mxCell>
        <mxCell id="Lf-j3aKx7FF4s02Z2M5Q-34" style="edgeStyle=orthogonalEdgeStyle;rounded=0;orthogonalLoop=1;jettySize=auto;html=1;" edge="1" parent="1" source="Lf-j3aKx7FF4s02Z2M5Q-29" target="Lf-j3aKx7FF4s02Z2M5Q-35">
          <mxGeometry relative="1" as="geometry">
            <mxPoint x="1200.0000000000002" y="1192" as="targetPoint" />
            <Array as="points">
              <mxPoint x="1190" y="1097" />
            </Array>
          </mxGeometry>
        </mxCell>
        <mxCell id="Lf-j3aKx7FF4s02Z2M5Q-37" value="" style="edgeStyle=orthogonalEdgeStyle;rounded=0;orthogonalLoop=1;jettySize=auto;html=1;entryX=0.5;entryY=0;entryDx=0;entryDy=0;" edge="1" parent="1" source="Lf-j3aKx7FF4s02Z2M5Q-29" target="Lf-j3aKx7FF4s02Z2M5Q-36">
          <mxGeometry relative="1" as="geometry">
            <Array as="points">
              <mxPoint x="1550" y="1097" />
            </Array>
          </mxGeometry>
        </mxCell>
        <mxCell id="Lf-j3aKx7FF4s02Z2M5Q-29" value="if (sortedMas[i]==sortedMas[i+1])" style="rhombus;whiteSpace=wrap;html=1;" vertex="1" parent="1">
          <mxGeometry x="1220" y="1057.16" width="287.5" height="80.55" as="geometry" />
        </mxCell>
        <mxCell id="Lf-j3aKx7FF4s02Z2M5Q-39" style="edgeStyle=orthogonalEdgeStyle;rounded=0;orthogonalLoop=1;jettySize=auto;html=1;" edge="1" parent="1" source="Lf-j3aKx7FF4s02Z2M5Q-35">
          <mxGeometry relative="1" as="geometry">
            <mxPoint x="1369.9999999999998" y="1231.9999999999998" as="targetPoint" />
            <Array as="points">
              <mxPoint x="1191" y="1232" />
            </Array>
          </mxGeometry>
        </mxCell>
        <mxCell id="Lf-j3aKx7FF4s02Z2M5Q-35" value="temp=sortedMas[i];" style="rounded=0;whiteSpace=wrap;html=1;" vertex="1" parent="1">
          <mxGeometry x="1125.5" y="1171" width="130" height="40" as="geometry" />
        </mxCell>
        <mxCell id="Lf-j3aKx7FF4s02Z2M5Q-38" style="edgeStyle=orthogonalEdgeStyle;rounded=0;orthogonalLoop=1;jettySize=auto;html=1;" edge="1" parent="1" source="Lf-j3aKx7FF4s02Z2M5Q-36">
          <mxGeometry relative="1" as="geometry">
            <mxPoint x="1370" y="1232" as="targetPoint" />
            <Array as="points">
              <mxPoint x="1550" y="1232" />
            </Array>
          </mxGeometry>
        </mxCell>
        <mxCell id="Lf-j3aKx7FF4s02Z2M5Q-36" value="temp =sortedMas[i]; isFounded=true; i=M*N;" style="whiteSpace=wrap;html=1;" vertex="1" parent="1">
          <mxGeometry x="1490" y="1161.005" width="120" height="60" as="geometry" />
        </mxCell>
        <mxCell id="Lf-j3aKx7FF4s02Z2M5Q-40" value="" style="endArrow=classic;html=1;rounded=0;" edge="1" parent="1">
          <mxGeometry width="50" height="50" relative="1" as="geometry">
            <mxPoint x="1370" y="1232" as="sourcePoint" />
            <mxPoint x="1030" y="1160" as="targetPoint" />
            <Array as="points">
              <mxPoint x="1370" y="1252" />
              <mxPoint x="1030" y="1252" />
            </Array>
          </mxGeometry>
        </mxCell>
        <mxCell id="Lf-j3aKx7FF4s02Z2M5Q-51" value="" style="edgeStyle=orthogonalEdgeStyle;rounded=0;orthogonalLoop=1;jettySize=auto;html=1;" edge="1" parent="1" source="Lf-j3aKx7FF4s02Z2M5Q-43" target="Lf-j3aKx7FF4s02Z2M5Q-50">
          <mxGeometry relative="1" as="geometry">
            <Array as="points">
              <mxPoint x="1910" y="990" />
            </Array>
          </mxGeometry>
        </mxCell>
        <mxCell id="Lf-j3aKx7FF4s02Z2M5Q-53" value="" style="edgeStyle=orthogonalEdgeStyle;rounded=0;orthogonalLoop=1;jettySize=auto;html=1;" edge="1" parent="1" source="Lf-j3aKx7FF4s02Z2M5Q-43" target="Lf-j3aKx7FF4s02Z2M5Q-52">
          <mxGeometry relative="1" as="geometry" />
        </mxCell>
        <mxCell id="Lf-j3aKx7FF4s02Z2M5Q-43" value="if (isFounded)" style="rhombus;whiteSpace=wrap;html=1;" vertex="1" parent="1">
          <mxGeometry x="2200" y="959.81" width="100" height="63.28" as="geometry" />
        </mxCell>
        <mxCell id="Lf-j3aKx7FF4s02Z2M5Q-55" style="edgeStyle=orthogonalEdgeStyle;rounded=0;orthogonalLoop=1;jettySize=auto;html=1;" edge="1" parent="1">
          <mxGeometry relative="1" as="geometry">
            <mxPoint x="2250" y="1171" as="targetPoint" />
            <mxPoint x="1910" y="1123.2199999999998" as="sourcePoint" />
            <Array as="points">
              <mxPoint x="1910" y="1170" />
              <mxPoint x="2250" y="1170" />
            </Array>
          </mxGeometry>
        </mxCell>
        <mxCell id="Lf-j3aKx7FF4s02Z2M5Q-50" value="cout &amp;lt;&amp;lt; &quot;Минимальный из неповторяющихся элементов двумерного массива: &quot; &amp;lt;&amp;lt; temp &amp;lt;&amp;lt; endl;" style="shape=parallelogram;perimeter=parallelogramPerimeter;whiteSpace=wrap;html=1;fixedSize=1;" vertex="1" parent="1">
          <mxGeometry x="1630" y="1080.86" width="560" height="41.36" as="geometry" />
        </mxCell>
        <mxCell id="Lf-j3aKx7FF4s02Z2M5Q-56" style="edgeStyle=orthogonalEdgeStyle;rounded=0;orthogonalLoop=1;jettySize=auto;html=1;" edge="1" parent="1" source="Lf-j3aKx7FF4s02Z2M5Q-52">
          <mxGeometry relative="1" as="geometry">
            <mxPoint x="2250" y="1170" as="targetPoint" />
            <Array as="points">
              <mxPoint x="2620" y="1170" />
            </Array>
          </mxGeometry>
        </mxCell>
        <mxCell id="Lf-j3aKx7FF4s02Z2M5Q-52" value="cout &amp;lt;&amp;lt; &quot;Неповторяющиеся элементы двумерного массива отсутствуют&quot; &amp;lt;&amp;lt; endl;" style="shape=parallelogram;perimeter=parallelogramPerimeter;whiteSpace=wrap;html=1;fixedSize=1;" vertex="1" parent="1">
          <mxGeometry x="2380" y="1080.8600000000001" width="480" height="34.57" as="geometry" />
        </mxCell>
        <mxCell id="Lf-j3aKx7FF4s02Z2M5Q-54" value="" style="endArrow=classic;html=1;rounded=0;entryX=0.5;entryY=0;entryDx=0;entryDy=0;" edge="1" parent="1" target="Lf-j3aKx7FF4s02Z2M5Q-43">
          <mxGeometry width="50" height="50" relative="1" as="geometry">
            <mxPoint x="1367" y="850" as="sourcePoint" />
            <mxPoint x="2247" y="959.81" as="targetPoint" />
            <Array as="points">
              <mxPoint x="1367" y="940" />
              <mxPoint x="2250" y="940" />
            </Array>
          </mxGeometry>
        </mxCell>
        <mxCell id="Lf-j3aKx7FF4s02Z2M5Q-57" value="return;" style="ellipse;whiteSpace=wrap;html=1;" vertex="1" parent="1">
          <mxGeometry x="2215" y="1200" width="70" height="30" as="geometry" />
        </mxCell>
        <mxCell id="Lf-j3aKx7FF4s02Z2M5Q-58" value="" style="endArrow=classic;html=1;rounded=0;entryX=0.5;entryY=0;entryDx=0;entryDy=0;" edge="1" parent="1" target="Lf-j3aKx7FF4s02Z2M5Q-57">
          <mxGeometry width="50" height="50" relative="1" as="geometry">
            <mxPoint x="2250" y="1170" as="sourcePoint" />
            <mxPoint x="2230" y="1220" as="targetPoint" />
          </mxGeometry>
        </mxCell>
        <mxCell id="Lf-j3aKx7FF4s02Z2M5Q-59" value="{" style="text;html=1;align=center;verticalAlign=middle;resizable=0;points=[];autosize=1;strokeColor=none;fillColor=none;" vertex="1" parent="1">
          <mxGeometry x="414" y="450" width="30" height="30" as="geometry" />
        </mxCell>
        <mxCell id="Lf-j3aKx7FF4s02Z2M5Q-60" value="{" style="text;html=1;align=center;verticalAlign=middle;resizable=0;points=[];autosize=1;strokeColor=none;fillColor=none;" vertex="1" parent="1">
          <mxGeometry x="414" y="630" width="30" height="30" as="geometry" />
        </mxCell>
        <mxCell id="Lf-j3aKx7FF4s02Z2M5Q-61" value="{" style="text;html=1;align=center;verticalAlign=middle;resizable=0;points=[];autosize=1;strokeColor=none;fillColor=none;" vertex="1" parent="1">
          <mxGeometry x="414" y="713.75" width="30" height="30" as="geometry" />
        </mxCell>
        <mxCell id="Lf-j3aKx7FF4s02Z2M5Q-62" value="{" style="text;html=1;align=center;verticalAlign=middle;resizable=0;points=[];autosize=1;strokeColor=none;fillColor=none;" vertex="1" parent="1">
          <mxGeometry x="620" y="880" width="30" height="30" as="geometry" />
        </mxCell>
        <mxCell id="Lf-j3aKx7FF4s02Z2M5Q-63" value="{" style="text;html=1;align=center;verticalAlign=middle;resizable=0;points=[];autosize=1;strokeColor=none;fillColor=none;" vertex="1" parent="1">
          <mxGeometry x="495" y="959.81" width="30" height="30" as="geometry" />
        </mxCell>
        <mxCell id="Lf-j3aKx7FF4s02Z2M5Q-64" value="{" style="text;html=1;align=center;verticalAlign=middle;resizable=0;points=[];autosize=1;strokeColor=none;fillColor=none;" vertex="1" parent="1">
          <mxGeometry x="1150" y="793.13" width="30" height="30" as="geometry" />
        </mxCell>
        <mxCell id="Lf-j3aKx7FF4s02Z2M5Q-65" value="{" style="text;html=1;align=center;verticalAlign=middle;resizable=0;points=[];autosize=1;strokeColor=none;fillColor=none;" vertex="1" parent="1">
          <mxGeometry x="1150" y="900" width="30" height="30" as="geometry" />
        </mxCell>
        <mxCell id="Lf-j3aKx7FF4s02Z2M5Q-66" value="{" style="text;html=1;align=center;verticalAlign=middle;resizable=0;points=[];autosize=1;strokeColor=none;fillColor=none;" vertex="1" parent="1">
          <mxGeometry x="1507.5" y="1115.43" width="30" height="30" as="geometry" />
        </mxCell>
        <mxCell id="Lf-j3aKx7FF4s02Z2M5Q-67" value="0" style="text;html=1;align=center;verticalAlign=middle;resizable=0;points=[];autosize=1;strokeColor=none;fillColor=none;" vertex="1" parent="1">
          <mxGeometry x="1515" y="1058" width="30" height="30" as="geometry" />
        </mxCell>
        <mxCell id="Lf-j3aKx7FF4s02Z2M5Q-68" value="0" style="text;html=1;align=center;verticalAlign=middle;resizable=0;points=[];autosize=1;strokeColor=none;fillColor=none;" vertex="1" parent="1">
          <mxGeometry x="1296.25" y="959.81" width="30" height="30" as="geometry" />
        </mxCell>
        <mxCell id="Lf-j3aKx7FF4s02Z2M5Q-70" value="0" style="text;html=1;align=center;verticalAlign=middle;resizable=0;points=[];autosize=1;strokeColor=none;fillColor=none;" vertex="1" parent="1">
          <mxGeometry x="1278.75" y="823.26" width="30" height="30" as="geometry" />
        </mxCell>
        <mxCell id="Lf-j3aKx7FF4s02Z2M5Q-71" value="0" style="text;html=1;align=center;verticalAlign=middle;resizable=0;points=[];autosize=1;strokeColor=none;fillColor=none;" vertex="1" parent="1">
          <mxGeometry x="1440" y="760" width="30" height="30" as="geometry" />
        </mxCell>
        <mxCell id="Lf-j3aKx7FF4s02Z2M5Q-73" value="0" style="text;html=1;align=center;verticalAlign=middle;resizable=0;points=[];autosize=1;strokeColor=none;fillColor=none;" vertex="1" parent="1">
          <mxGeometry x="780" y="920" width="30" height="30" as="geometry" />
        </mxCell>
        <mxCell id="Lf-j3aKx7FF4s02Z2M5Q-74" value="0" style="text;html=1;align=center;verticalAlign=middle;resizable=0;points=[];autosize=1;strokeColor=none;fillColor=none;" vertex="1" parent="1">
          <mxGeometry x="827" y="823.1300000000001" width="30" height="30" as="geometry" />
        </mxCell>
        <mxCell id="Lf-j3aKx7FF4s02Z2M5Q-75" value="0" style="text;html=1;align=center;verticalAlign=middle;resizable=0;points=[];autosize=1;strokeColor=none;fillColor=none;" vertex="1" parent="1">
          <mxGeometry x="545" y="660.0000000000001" width="30" height="30" as="geometry" />
        </mxCell>
        <mxCell id="Lf-j3aKx7FF4s02Z2M5Q-76" value="0" style="text;html=1;align=center;verticalAlign=middle;resizable=0;points=[];autosize=1;strokeColor=none;fillColor=none;" vertex="1" parent="1">
          <mxGeometry x="577.5" y="569.0000000000001" width="30" height="30" as="geometry" />
        </mxCell>
        <mxCell id="Lf-j3aKx7FF4s02Z2M5Q-77" value="0" style="text;html=1;align=center;verticalAlign=middle;resizable=0;points=[];autosize=1;strokeColor=none;fillColor=none;" vertex="1" parent="1">
          <mxGeometry x="525" y="750.0000000000001" width="30" height="30" as="geometry" />
        </mxCell>
        <mxCell id="Lf-j3aKx7FF4s02Z2M5Q-78" value="1" style="text;html=1;align=center;verticalAlign=middle;resizable=0;points=[];autosize=1;strokeColor=none;fillColor=none;" vertex="1" parent="1">
          <mxGeometry x="454" y="631" width="30" height="30" as="geometry" />
        </mxCell>
        <mxCell id="Lf-j3aKx7FF4s02Z2M5Q-79" value="1" style="text;html=1;align=center;verticalAlign=middle;resizable=0;points=[];autosize=1;strokeColor=none;fillColor=none;" vertex="1" parent="1">
          <mxGeometry x="454" y="713.75" width="30" height="30" as="geometry" />
        </mxCell>
        <mxCell id="Lf-j3aKx7FF4s02Z2M5Q-80" value="1" style="text;html=1;align=center;verticalAlign=middle;resizable=0;points=[];autosize=1;strokeColor=none;fillColor=none;" vertex="1" parent="1">
          <mxGeometry x="540" y="920" width="30" height="30" as="geometry" />
        </mxCell>
        <mxCell id="Lf-j3aKx7FF4s02Z2M5Q-81" value="1" style="text;html=1;align=center;verticalAlign=middle;resizable=0;points=[];autosize=1;strokeColor=none;fillColor=none;" vertex="1" parent="1">
          <mxGeometry x="680" y="890" width="30" height="30" as="geometry" />
        </mxCell>
        <mxCell id="Lf-j3aKx7FF4s02Z2M5Q-82" value="1" style="text;html=1;align=center;verticalAlign=middle;resizable=0;points=[];autosize=1;strokeColor=none;fillColor=none;" vertex="1" parent="1">
          <mxGeometry x="1080" y="962.61" width="30" height="30" as="geometry" />
        </mxCell>
        <mxCell id="Lf-j3aKx7FF4s02Z2M5Q-83" value="1" style="text;html=1;align=center;verticalAlign=middle;resizable=0;points=[];autosize=1;strokeColor=none;fillColor=none;" vertex="1" parent="1">
          <mxGeometry x="1266.25" y="760" width="30" height="30" as="geometry" />
        </mxCell>
        <mxCell id="Lf-j3aKx7FF4s02Z2M5Q-84" value="1" style="text;html=1;align=center;verticalAlign=middle;resizable=0;points=[];autosize=1;strokeColor=none;fillColor=none;" vertex="1" parent="1">
          <mxGeometry x="1190" y="1070" width="30" height="30" as="geometry" />
        </mxCell>
        <mxCell id="Lf-j3aKx7FF4s02Z2M5Q-85" value="1" style="text;html=1;align=center;verticalAlign=middle;resizable=0;points=[];autosize=1;strokeColor=none;fillColor=none;" vertex="1" parent="1">
          <mxGeometry x="2150" y="959.81" width="30" height="30" as="geometry" />
        </mxCell>
        <mxCell id="Lf-j3aKx7FF4s02Z2M5Q-86" value="0" style="text;html=1;align=center;verticalAlign=middle;resizable=0;points=[];autosize=1;strokeColor=none;fillColor=none;" vertex="1" parent="1">
          <mxGeometry x="2315" y="958" width="30" height="30" as="geometry" />
        </mxCell>
        <mxCell id="Lf-j3aKx7FF4s02Z2M5Q-87" value="}" style="text;html=1;align=center;verticalAlign=middle;resizable=0;points=[];autosize=1;strokeColor=none;fillColor=none;" vertex="1" parent="1">
          <mxGeometry x="681" y="1124" width="30" height="30" as="geometry" />
        </mxCell>
        <mxCell id="Lf-j3aKx7FF4s02Z2M5Q-88" value="}" style="text;html=1;align=center;verticalAlign=middle;resizable=0;points=[];autosize=1;strokeColor=none;fillColor=none;" vertex="1" parent="1">
          <mxGeometry x="960" y="847.31" width="30" height="30" as="geometry" />
        </mxCell>
        <mxCell id="Lf-j3aKx7FF4s02Z2M5Q-89" value="}" style="text;html=1;align=center;verticalAlign=middle;resizable=0;points=[];autosize=1;strokeColor=none;fillColor=none;" vertex="1" parent="1">
          <mxGeometry x="1000" y="683.75" width="30" height="30" as="geometry" />
        </mxCell>
        <mxCell id="Lf-j3aKx7FF4s02Z2M5Q-90" value="}" style="text;html=1;align=center;verticalAlign=middle;resizable=0;points=[];autosize=1;strokeColor=none;fillColor=none;" vertex="1" parent="1">
          <mxGeometry x="1370" y="592.5" width="30" height="30" as="geometry" />
        </mxCell>
        <mxCell id="Lf-j3aKx7FF4s02Z2M5Q-91" value="}" style="text;html=1;align=center;verticalAlign=middle;resizable=0;points=[];autosize=1;strokeColor=none;fillColor=none;" vertex="1" parent="1">
          <mxGeometry x="1296.25" y="823.13" width="30" height="30" as="geometry" />
        </mxCell>
        <mxCell id="Lf-j3aKx7FF4s02Z2M5Q-92" value="}" style="text;html=1;align=center;verticalAlign=middle;resizable=0;points=[];autosize=1;strokeColor=none;fillColor=none;" vertex="1" parent="1">
          <mxGeometry x="1545" y="823.13" width="30" height="30" as="geometry" />
        </mxCell>
        <mxCell id="Lf-j3aKx7FF4s02Z2M5Q-93" value="}" style="text;html=1;align=center;verticalAlign=middle;resizable=0;points=[];autosize=1;strokeColor=none;fillColor=none;" vertex="1" parent="1">
          <mxGeometry x="1370" y="1240" width="30" height="30" as="geometry" />
        </mxCell>
        <mxCell id="Lf-j3aKx7FF4s02Z2M5Q-94" value="}" style="text;html=1;align=center;verticalAlign=middle;resizable=0;points=[];autosize=1;strokeColor=none;fillColor=none;" vertex="1" parent="1">
          <mxGeometry x="2250" y="1240" width="30" height="30" as="geometry" />
        </mxCell>
      </root>
    </mxGraphModel>
  </diagram>
</mxfile>
